<svg width="49" height="48" viewBox="0 0 49 48" fill="none" xmlns="http://www.w3.org/2000/svg">
<path d="M16.5 14C14.7327 14 13.3 15.4924 13.3 17.3333V19.8333C13.3 18.4526 12.2255 17.3333 10.9 17.3333C9.57451 17.3333 8.5 18.4526 8.5 19.8333V28.1667C8.5 29.5474 9.57451 30.6667 10.9 30.6667C12.2255 30.6667 13.3 29.5474 13.3 28.1667V30.6667C13.3 32.5076 14.7327 34 16.5 34C18.2673 34 19.7 32.5076 19.7 30.6667V17.3333C19.7 15.4924 18.2673 14 16.5 14Z" fill="url(#paint0_linear_547_1699)"/>
<path d="M32.5 14C30.7327 14 29.3 15.4924 29.3 17.3333V30.6667C29.3 32.5076 30.7327 34 32.5 34C34.2673 34 35.7 32.5076 35.7 30.6667V28.1667C35.7 29.5474 36.7745 30.6667 38.1 30.6667C39.4255 30.6667 40.5 29.5474 40.5 28.1667V19.8333C40.5 18.4526 39.4255 17.3333 38.1 17.3333C36.7745 17.3333 35.7 18.4526 35.7 19.8333V17.3333C35.7 15.4924 34.2673 14 32.5 14Z" fill="url(#paint1_linear_547_1699)"/>
<path d="M21.3 22.3333C21.3 21.4129 22.0163 20.6667 22.9 20.6667H26.1C26.9837 20.6667 27.7 21.4129 27.7 22.3333V25.6667C27.7 26.5871 26.9837 27.3333 26.1 27.3333H22.9C22.0163 27.3333 21.3 26.5871 21.3 25.6667V22.3333Z" fill="url(#paint2_linear_547_1699)"/>
<defs>
<linearGradient id="paint0_linear_547_1699" x1="24.5" y1="14" x2="24.5" y2="34" gradientUnits="userSpaceOnUse">
<stop stop-color="#CC8760"/>
<stop offset="1" stop-color="#FF0000"/>
</linearGradient>
<linearGradient id="paint1_linear_547_1699" x1="24.5" y1="14" x2="24.5" y2="34" gradientUnits="userSpaceOnUse">
<stop stop-color="#CC8760"/>
<stop offset="1" stop-color="#FF0000"/>
</linearGradient>
<linearGradient id="paint2_linear_547_1699" x1="24.5" y1="14" x2="24.5" y2="34" gradientUnits="userSpaceOnUse">
<stop stop-color="#CC8760"/>
<stop offset="1" stop-color="#FF0000"/>
</linearGradient>
</defs>
</svg>
