<svg width="49" height="48" viewBox="0 0 49 48" fill="none" xmlns="http://www.w3.org/2000/svg">
<path fill-rule="evenodd" clip-rule="evenodd" d="M22.3843 8.73779C22.1716 9.57219 21.6965 10.8258 20.8333 12.7835C20.3 13.9931 19.2333 15.2027 18.0481 16.5468C15.6778 19.2348 12.8333 22.4605 12.8333 27.299C12.8333 34.5567 17.6333 40 24.8333 40C32.0333 40 36.8333 34.5567 36.8333 27.299C36.8333 20.0412 31.617 13.9268 30.4333 14.5979C29.918 14.8901 29.548 15.9598 29.1626 17.0746C28.6627 18.52 28.1367 20.0412 27.2333 20.0412C26.4701 20.0412 26.6171 18.8025 26.8059 17.2115C27.0128 15.4673 27.2701 13.2996 26.4333 11.8763C25.5126 10.31 24.5366 8.96287 23.565 8.10493C23.2024 7.78474 22.5073 8.25523 22.3843 8.73779ZM23.4735 25.0275C23.3776 25.2447 23.2605 25.4958 23.119 25.7869C22.8905 26.2573 22.4333 26.7278 21.9254 27.2504C20.9095 28.2958 19.6905 29.5502 19.6905 31.4318C19.6905 34.2543 21.7476 36.3711 24.8333 36.3711C27.919 36.3711 29.9762 34.2543 29.9762 31.4318C29.9762 28.6094 27.7406 26.2315 27.2333 26.4925C27.0125 26.6062 26.8539 27.0222 26.6887 27.4557C26.4745 28.0178 26.249 28.6094 25.8619 28.6094C25.5348 28.6094 25.5978 28.1277 25.6787 27.5089C25.7674 26.8306 25.8776 25.9876 25.519 25.4341C25.3071 25.107 25.0884 24.8045 24.8667 24.5428C24.5508 24.1697 23.6737 24.5735 23.4735 25.0275Z" fill="url(#paint0_linear_547_1692)"/>
<defs>
<linearGradient id="paint0_linear_547_1692" x1="24.8333" y1="8" x2="24.8333" y2="40" gradientUnits="userSpaceOnUse">
<stop stop-color="#FFD057"/>
<stop offset="1" stop-color="#FF8C05"/>
</linearGradient>
</defs>
</svg>
