<svg width="36" height="36" viewBox="0 0 36 36" fill="none" xmlns="http://www.w3.org/2000/svg">
<path fill-rule="evenodd" clip-rule="evenodd" d="M7.75831 18C7.75831 16.8308 7.95237 15.7098 8.29915 14.6585L2.23259 10.026C1.05022 12.4265 0.384216 15.1315 0.384216 18C0.384216 20.8662 1.04965 23.5693 2.23006 25.9684L8.29325 21.3269C7.94984 20.2804 7.75831 19.1635 7.75831 18Z" fill="#FBBC05"/>
<path fill-rule="evenodd" clip-rule="evenodd" d="M18.4098 7.36369C20.9497 7.36369 23.2439 8.26369 25.0464 9.73631L30.29 4.5C27.0948 1.71816 22.9981 0 18.4098 0C11.2863 0 5.16401 4.07362 2.23254 10.026L8.29883 14.6585C9.69664 10.4155 13.6811 7.36369 18.4098 7.36369Z" fill="#EA4335"/>
<path fill-rule="evenodd" clip-rule="evenodd" d="M18.4098 28.6363C13.6814 28.6363 9.69692 25.5845 8.29911 21.3415L2.23254 25.9732C5.16401 31.9264 11.2863 36 18.4098 36C22.8063 36 27.0039 34.4388 30.1542 31.5138L24.3959 27.0622C22.7711 28.0856 20.725 28.6363 18.4098 28.6363Z" fill="#34A853"/>
<path fill-rule="evenodd" clip-rule="evenodd" d="M35.6158 18C35.6158 16.9363 35.4519 15.7908 35.206 14.7274H18.4098V21.6818H28.078C27.5946 24.0531 26.2789 25.8758 24.3959 27.0622L30.1542 31.5138C33.4634 28.4425 35.6158 23.8672 35.6158 18Z" fill="#4285F4"/>
</svg>
