<svg width="49" height="48" viewBox="0 0 49 48" fill="none" xmlns="http://www.w3.org/2000/svg">
<path d="M22.3889 18.6667C22.3889 17.6848 23.1848 16.8889 24.1667 16.8889C25.1485 16.8889 25.9444 17.6848 25.9444 18.6667V24.8533C25.9444 24.9324 25.9393 25.0103 25.9293 25.0866C25.8715 25.5583 25.626 26.0058 25.2117 26.3077L22.2219 28.4866C21.4284 29.0649 20.3163 28.8904 19.7381 28.0969C19.1598 27.3034 19.3343 26.1914 20.1278 25.6131L22.3889 23.9653V18.6667Z" fill="#CECECE"/>
<path fill-rule="evenodd" clip-rule="evenodd" d="M40.1667 24C40.1667 32.8366 33.0032 40 24.1667 40C15.3301 40 8.16666 32.8366 8.16666 24C8.16666 15.1634 15.3301 8 24.1667 8C33.0032 8 40.1667 15.1634 40.1667 24ZM34.8333 24C34.8333 29.891 30.0577 34.6667 24.1667 34.6667C18.2756 34.6667 13.5 29.891 13.5 24C13.5 18.109 18.2756 13.3333 24.1667 13.3333C30.0577 13.3333 34.8333 18.109 34.8333 24Z" fill="#CECECE"/>
</svg>
